<svg width="20" height="20" viewBox="0 0 20 20" fill="none" xmlns="http://www.w3.org/2000/svg">
<path d="M4.27211 15.7283C4.07378 15.53 3.97461 15.2872 3.97461 15C3.97461 14.7127 4.07378 14.47 4.27211 14.2716C4.47044 14.0733 4.71322 13.9741 5.00044 13.9741C5.28766 13.9741 5.53044 14.0733 5.72878 14.2716C5.92711 14.47 6.02628 14.7127 6.02628 15C6.02628 15.2872 5.92711 15.53 5.72878 15.7283C5.53044 15.9266 5.28766 16.0258 5.00044 16.0258C4.71322 16.0258 4.47044 15.9266 4.27211 15.7283ZM4.27211 10.7283C4.07378 10.53 3.97461 10.2872 3.97461 9.99995C3.97461 9.71273 4.07378 9.46995 4.27211 9.27162C4.47044 9.07329 4.71322 8.97412 5.00044 8.97412C5.28766 8.97412 5.53044 9.07329 5.72878 9.27162C5.92711 9.46995 6.02628 9.71273 6.02628 9.99995C6.02628 10.2872 5.92711 10.53 5.72878 10.7283C5.53044 10.9266 5.28766 11.0258 5.00044 11.0258C4.71322 11.0258 4.47044 10.9266 4.27211 10.7283ZM4.27211 5.72829C4.07378 5.52995 3.97461 5.28718 3.97461 4.99995C3.97461 4.71273 4.07378 4.46995 4.27211 4.27162C4.47044 4.07329 4.71322 3.97412 5.00044 3.97412C5.28766 3.97412 5.53044 4.07329 5.72878 4.27162C5.92711 4.46995 6.02628 4.71273 6.02628 4.99995C6.02628 5.28718 5.92711 5.52995 5.72878 5.72829C5.53044 5.92662 5.28766 6.02579 5.00044 6.02579C4.71322 6.02579 4.47044 5.92662 4.27211 5.72829ZM9.27211 5.72829C9.07378 5.52995 8.97461 5.28718 8.97461 4.99995C8.97461 4.71273 9.07378 4.46995 9.27211 4.27162C9.47044 4.07329 9.71322 3.97412 10.0004 3.97412C10.2877 3.97412 10.5304 4.07329 10.7288 4.27162C10.9271 4.46995 11.0263 4.71273 11.0263 4.99995C11.0263 5.28718 10.9271 5.52995 10.7288 5.72829C10.5304 5.92662 10.2877 6.02579 10.0004 6.02579C9.71322 6.02579 9.47044 5.92662 9.27211 5.72829ZM14.2721 5.72829C14.0738 5.52995 13.9746 5.28718 13.9746 4.99995C13.9746 4.71273 14.0738 4.46995 14.2721 4.27162C14.4704 4.07329 14.7132 3.97412 15.0004 3.97412C15.2877 3.97412 15.5304 4.07329 15.7288 4.27162C15.9271 4.46995 16.0263 4.71273 16.0263 4.99995C16.0263 5.28718 15.9271 5.52995 15.7288 5.72829C15.5304 5.92662 15.2877 6.02579 15.0004 6.02579C14.7132 6.02579 14.4704 5.92662 14.2721 5.72829ZM9.27211 10.7283C9.07378 10.53 8.97461 10.2872 8.97461 9.99995C8.97461 9.71273 9.07378 9.46995 9.27211 9.27162C9.47044 9.07329 9.71322 8.97412 10.0004 8.97412C10.2877 8.97412 10.5304 9.07329 10.7288 9.27162C10.9271 9.46995 11.0263 9.71273 11.0263 9.99995C11.0263 10.2872 10.9271 10.53 10.7288 10.7283C10.5304 10.9266 10.2877 11.0258 10.0004 11.0258C9.71322 11.0258 9.47044 10.9266 9.27211 10.7283ZM11.0263 15.3525V14.4583C11.0263 14.3688 11.0418 14.2852 11.0729 14.2075C11.1041 14.1297 11.1557 14.0547 11.2279 13.9825L15.4696 9.76162C15.5524 9.6794 15.6379 9.62384 15.7263 9.59495C15.8152 9.56607 15.9041 9.55162 15.9929 9.55162C16.0846 9.55162 16.1774 9.5694 16.2713 9.60495C16.3652 9.64051 16.4479 9.69412 16.5196 9.76579L17.2904 10.5533C17.3588 10.6355 17.4107 10.7208 17.4463 10.8091C17.4824 10.898 17.5004 10.9869 17.5004 11.0758C17.5004 11.1641 17.4832 11.2536 17.4488 11.3441C17.4143 11.4347 17.3616 11.5208 17.2904 11.6025L13.0696 15.8233C12.9968 15.8961 12.9218 15.948 12.8446 15.9791C12.7674 16.0102 12.6835 16.0258 12.5929 16.0258H11.6988C11.5054 16.0258 11.3449 15.9619 11.2171 15.8341C11.0893 15.7063 11.0254 15.5458 11.0254 15.3525M11.7629 15.2883H12.5546L15.4446 12.3941L15.0529 11.9983L14.6738 11.5908L11.7629 14.4966V15.2883ZM15.0529 11.9983L14.6738 11.5908L15.4446 12.3941L15.0529 11.9983Z" fill="#767676"/>
</svg>
