<svg width="20" height="20" viewBox="0 0 20 20" fill="none" xmlns="http://www.w3.org/2000/svg">
<path d="M10.833 9.29199H5.83301" stroke="#171717" stroke-width="1.2" stroke-linecap="round" stroke-linejoin="round"/>
<path d="M1.66699 9.29121V5.44121C1.66699 3.74121 3.04199 2.36621 4.74199 2.36621H9.42532C11.1253 2.36621 12.5003 3.42454 12.5003 5.12454" stroke="#171717" stroke-width="1.2" stroke-linecap="round" stroke-linejoin="round"/>
<path d="M14.567 10.1667C14.1503 10.5667 13.9503 11.1833 14.117 11.8166C14.3253 12.5916 15.092 13.0833 15.892 13.0833H16.667V14.2917C16.667 16.1333 15.1753 17.625 13.3337 17.625H5.00033C3.15866 17.625 1.66699 16.1333 1.66699 14.2917V8.45833C1.66699 6.61667 3.15866 5.125 5.00033 5.125H13.3337C15.167 5.125 16.667 6.625 16.667 8.45833V9.66663H15.767C15.3003 9.66663 14.8753 9.84999 14.567 10.1667Z" stroke="#171717" stroke-width="1.2" stroke-linecap="round" stroke-linejoin="round"/>
<path d="M18.3338 10.517V12.2337C18.3338 12.7003 17.9505 13.0837 17.4755 13.0837H15.8672C14.9672 13.0837 14.1422 12.4254 14.0672 11.5254C14.0172 11.0004 14.2172 10.5087 14.5672 10.167C14.8755 9.85036 15.3005 9.66699 15.7672 9.66699H17.4755C17.9505 9.66699 18.3338 10.0503 18.3338 10.517Z" stroke="#171717" stroke-width="1.2" stroke-linecap="round" stroke-linejoin="round"/>
</svg>
